<?xml version="1.0" encoding="utf-8"?>
<!-- Generator: Adobe Illustrator 23.1.1, SVG Export Plug-In . SVG Version: 6.00 Build 0)  -->
<svg version="1.1" id="_x30_5-FULL-WHITE" xmlns="http://www.w3.org/2000/svg" xmlns:xlink="http://www.w3.org/1999/xlink" x="0px"
	 y="0px" viewBox="0 0 76.26 76.86" style="enable-background:new 0 0 76.26 76.86;" xml:space="preserve">
<style type="text/css">
	.st0{fill:#179894;}
</style>
<g id="Instagram_5_">
	<path class="st0" d="M32.91,39.23c0-3.89,3.15-7.04,7.04-7.04c3.9,0,7.06,3.15,7.06,7.04c0,3.88-3.16,7.03-7.06,7.03
		C36.06,46.26,32.91,43.11,32.91,39.23z"/>
	<path class="st0" d="M53.43,30.04c0,0.64-0.51,1.15-1.15,1.15h-3.7c-0.64,0-1.15-0.51-1.15-1.15v-3.7c0-0.64,0.51-1.15,1.15-1.15
		h3.7c0.64,0,1.15,0.51,1.15,1.15V30.04z"/>
	<path class="st0" d="M50.22,36.19h4.21v16.74c0,0.64-0.14,1.26-0.77,1.26h-27.5c-0.63,0-0.73-0.62-0.73-1.26V36.19h4.17
		c-0.6,0-0.8,2.24-0.8,3.26c0,6.13,5.01,11.02,11.15,11.02c6.16,0,11.16-4.83,11.16-10.97C51.11,38.48,50.96,36.19,50.22,36.19z"/>
	<path class="st0" d="M38.96,1.32c-20.97,0-37.97,17-37.97,37.97c0,20.96,17,37.96,37.97,37.96c20.96,0,37.96-17,37.96-37.96
		C76.92,18.32,59.92,1.32,38.96,1.32z M58.43,53.17c0,2.4-2.14,4.02-4.54,4.02H25.94c-2.41,0-4.51-1.62-4.51-4.02V25.2
		c0-2.4,2.1-4.01,4.51-4.01h27.95c2.4,0,4.54,1.61,4.54,4.01V53.17z"/>
</g>
</svg>
