<?xml version="1.0" encoding="utf-8"?>
<!-- Generator: Adobe Illustrator 23.1.1, SVG Export Plug-In . SVG Version: 6.00 Build 0)  -->
<svg version="1.1" id="_x30_5-FULL-WHITE" xmlns="http://www.w3.org/2000/svg" xmlns:xlink="http://www.w3.org/1999/xlink" x="0px"
	 y="0px" viewBox="0 0 76.26 76.86" style="enable-background:new 0 0 76.26 76.86;" xml:space="preserve">
<style type="text/css">
	.st0{fill:#179894;}
</style>
<g id="Facebook_4_">
	<path class="st0" d="M38.82,0.71c-20.97,0-37.97,17-37.97,37.97c0,20.96,17,37.96,37.97,37.96c20.96,0,37.96-17,37.96-37.96
		C76.78,17.71,59.78,0.71,38.82,0.71z M57.29,54.73c0,1.12-0.55,2.31-1.66,2.31h-9.34v-14h4.75l0.72-6h-5.47v-3.58
		c0-1.6,0.43-2.42,2.73-2.42h3.27v-5.23c-1-0.07-2.55-0.22-4.58-0.22c-4.22,0-7.42,2.58-7.42,7.32v4.13h-5v6h5v14H22.97
		c-1.12,0-1.68-1.19-1.68-2.31V22.07c0-1.12,0.56-2.03,1.68-2.03h32.66c1.11,0,1.66,0.91,1.66,2.03V54.73z"/>
</g>
</svg>
