<?xml version="1.0" encoding="utf-8"?>
<!-- Generator: Adobe Illustrator 23.1.1, SVG Export Plug-In . SVG Version: 6.00 Build 0)  -->
<svg version="1.1" id="Layer_1" xmlns="http://www.w3.org/2000/svg" xmlns:xlink="http://www.w3.org/1999/xlink" x="0px" y="0px"
	 viewBox="0 0 150.94 105.86" style="enable-background:new 0 0 150.94 105.86;" xml:space="preserve">
<style type="text/css">
	.st0{clip-path:url(#SVGID_2_);fill:#169894;}
	.st1{fill:#169894;}
	.st2{clip-path:url(#SVGID_4_);fill:#169894;}
</style>
<g>
	<defs>
		<rect id="SVGID_1_" width="150.94" height="105.86"/>
	</defs>
	<clipPath id="SVGID_2_">
		<use xlink:href="#SVGID_1_"  style="overflow:visible;"/>
	</clipPath>
	<path class="st0" d="M75.47,12.8c-13.06,0-23.68,10.62-23.68,23.68s10.62,23.68,23.68,23.68c13.06,0,23.68-10.62,23.68-23.68
		S88.53,12.8,75.47,12.8 M75.47,62.8c-14.52,0-26.33-11.81-26.33-26.32s11.81-26.32,26.33-26.32c14.51,0,26.32,11.81,26.32,26.32
		S89.98,62.8,75.47,62.8"/>
	<path class="st0" d="M51.83,2.65C52.52,15.09,62.86,25,75.47,25c6.6,0,12.72-2.65,17.24-7.45c3.85-4.08,6.09-9.33,6.4-14.9H51.83z
		 M75.47,27.65c-14.52,0-26.33-11.81-26.33-26.32V0h52.65v1.32c0,6.73-2.54,13.14-7.15,18.04C89.68,24.63,82.7,27.65,75.47,27.65"/>
	<path class="st0" d="M75.47,28.07c-4.64,0-8.41,3.77-8.41,8.41c0,4.64,3.77,8.41,8.41,8.41c4.64,0,8.41-3.77,8.41-8.41
		C83.88,31.84,80.11,28.07,75.47,28.07 M75.47,47.53c-6.1,0-11.06-4.96-11.06-11.06c0-6.09,4.96-11.06,11.06-11.06
		c6.09,0,11.05,4.96,11.05,11.06C86.52,42.57,81.56,47.53,75.47,47.53"/>
</g>
<rect x="74.15" y="45.33" class="st1" width="2.65" height="16.67"/>
<rect x="49.95" y="35.15" class="st1" width="16.67" height="2.65"/>
<rect x="84.32" y="35.15" class="st1" width="16.67" height="2.65"/>
<rect x="86.3" y="40.3" transform="matrix(0.7071 -0.7071 0.7071 0.7071 -8.7212 76.2066)" class="st1" width="2.65" height="16.67"/>
<rect x="54.98" y="47.31" transform="matrix(0.7071 -0.7071 0.7071 0.7071 -15.8421 59.0141)" class="st1" width="16.67" height="2.65"/>
<rect x="80.6" y="44.07" transform="matrix(0.9268 -0.3756 0.3756 0.9268 -13.6857 34.6126)" class="st1" width="2.65" height="16.67"/>
<rect x="51.21" y="41.61" transform="matrix(0.9267 -0.3757 0.3757 0.9267 -11.7678 25.5135)" class="st1" width="16.67" height="2.65"/>
<rect x="90.07" y="34.62" transform="matrix(0.3104 -0.9506 0.9506 0.3104 22.1929 116.4943)" class="st1" width="2.65" height="16.67"/>
<rect x="60.66" y="51.07" transform="matrix(0.3767 -0.9264 0.9264 0.3767 -5.5318 96.5753)" class="st1" width="16.67" height="2.65"/>
<g>
	<defs>
		<rect id="SVGID_3_" width="150.94" height="105.86"/>
	</defs>
	<clipPath id="SVGID_4_">
		<use xlink:href="#SVGID_3_"  style="overflow:visible;"/>
	</clipPath>
	<path class="st2" d="M82.18,18.87c0,3.71-3.01,6.72-6.72,6.72c-3.71,0-6.71-3.01-6.71-6.72c0-3.71,3.01-6.71,6.71-6.71
		C79.18,12.15,82.18,15.16,82.18,18.87"/>
	<path class="st2" d="M5.42,95.37L3.5,97.73v4.94c0,1.76-1.43,3.19-3.19,3.19H0V82.43H3.5v10.46l8.03-10.46h4.27l-8.07,10.3
		l9.21,13.13h-2.68c-1.05,0-2.04-0.52-2.63-1.39L5.42,95.37z"/>
	<path class="st2" d="M51.45,92.37l-2.55,5.68h7.91l-2.52-5.64l-1.37-3.22h-0.06L51.45,92.37z M53.04,82.4l11.28,23.46H62.3
		c-1.27,0-2.41-0.75-2.92-1.91l-1.17-2.68H47.46l-1.17,2.68c-0.51,1.16-1.65,1.91-2.92,1.91h-1.9L52.69,82.4H53.04z"/>
	<path class="st2" d="M91.81,82.43h3.6v20.24h6.73c0,1.76-1.43,3.19-3.19,3.19h-7.14V82.43z"/>
	<path class="st2" d="M138.06,92.37l-2.55,5.68h7.91l-2.52-5.64l-1.37-3.22h-0.06L138.06,92.37z M139.65,82.4l11.28,23.46h-2.03
		c-1.27,0-2.41-0.75-2.92-1.91l-1.17-2.68h-10.74l-1.17,2.68c-0.51,1.16-1.66,1.91-2.92,1.91h-1.9L139.3,82.4H139.65z"/>
</g>
</svg>
